<svg id="Calque_1" data-name="Calque 1" xmlns="http://www.w3.org/2000/svg" viewBox="0 0 118.81 35.56"><title>logo</title><path d="M17.46,17.27a7.87,7.87,0,0,1,3.69,6,7.34,7.34,0,0,1-7,7.83c-3.48.17-7,0-10.46.06-.86,0-1.14-.41-1.14-1.22q0-11.59,0-23.19c0-.87.29-1.3,1.22-1.29,3,0,6-.1,9,0a7.21,7.21,0,0,1,6.48,4.74c1.13,2.57.29,4.76-1.58,6.68A2,2,0,0,0,17.46,17.27ZM7.23,26.61c2,0,3.93.1,5.84,0a3.27,3.27,0,0,0,3.27-3.09,3.19,3.19,0,0,0-3-3.17c-2-.19-4,0-6.08,0ZM7.15,15.77c.54,0,.91.1,1.28.09,1.27,0,2.55.07,3.81,0a2.87,2.87,0,0,0,2.66-3A2.8,2.8,0,0,0,12.29,10a35.54,35.54,0,0,0-4.38-.07c-.26,0-.72.38-.73.6C7.12,12.26,7.15,14,7.15,15.77Z" transform="translate(-2.5 -5.22)"/><path d="M67.64,21.82l4.84-5.5c.84-1,3.72-1.58,4.8-1,.87.48.49,1.08,0,1.61-1.29,1.45-2.59,2.87-3.88,4.31L72.2,22.61l5.85,6.15a6.89,6.89,0,0,1,.86.94c.51.73.34,1.3-.59,1.37-2,.14-3.83.22-5.27-1.74a79.85,79.85,0,0,0-5.49-6c0,2.33,0,4.24,0,6.14.06,1.25-.3,1.79-1.66,1.75-3.15-.1-2.84.27-2.84-2.79,0-6.41,0-12.81,0-19.22a11.77,11.77,0,0,0-.25-2.37c-.23-1,.11-1.34,1.13-1.36,3.41-.08,3.61.08,3.61,3.47q0,5.58,0,11.17C67.57,20.52,67.6,21,67.64,21.82Z" transform="translate(-2.5 -5.22)"/><path d="M103.86,15.24a34.69,34.69,0,0,1,4.15,0c.45.06.95.69,1.21,1.17,1.23,2.37,2.38,4.77,3.69,7.44,1.14-2.48,2.24-4.65,3.14-6.9a2.53,2.53,0,0,1,2.87-1.82c2.81.12,2.86.07,1.59,2.59C117.38,24,114.26,30.21,111,36.39a33.89,33.89,0,0,1-2.68,3.8c-.58.81-1.16.73-1.87.11-2.27-2-2.19-1.89-.46-4.35a74.17,74.17,0,0,0,4.11-6.73,2.36,2.36,0,0,0-.06-1.91c-1.74-3.44-3.58-6.83-5.39-10.24C104.44,16.59,104.24,16.08,103.86,15.24Z" transform="translate(-2.5 -5.22)"/><path d="M32.39,15a8.16,8.16,0,1,1-8.18,8.11A8,8,0,0,1,32.39,15Zm-3.87,8.13a3.88,3.88,0,1,0,7.76.1,4,4,0,0,0-3.84-4.09A3.93,3.93,0,0,0,28.52,23.15Z" transform="translate(-2.5 -5.22)"/><path d="M51.29,15a8,8,0,0,1,8.21,8.22,8,8,0,0,1-8.06,8.09A8.16,8.16,0,1,1,51.29,15Zm3.9,8.26a3.88,3.88,0,1,0-3.95,3.93A3.88,3.88,0,0,0,55.19,23.28Z" transform="translate(-2.5 -5.22)"/><path d="M97.75,15a12,12,0,0,1,3.36.64c.35.17.16,1.48.17,2.28,0,1,0,1-3.53,1.65v6.7c0,1.23,0,2.46,0,3.68,0,.82-.31,1.24-1.17,1.19-.47,0-.94,0-1.42,0-1.29,0-1.87-.64-1.86-1.93,0-3.21,0-6.41,0-9.64-.83-.17-1.88-.08-2.25-.54s-.25-1.51-.23-2.3c0-1.21.21-1.31,2.48-1.68,0-1.11,0-2.27,0-3.43a5.63,5.63,0,0,1,3.14-5.57,8.1,8.1,0,0,1,7.36.13c.27.13.42.74.43,1.13s-.31.68-.41,1c-.39,1.45-1.09,1.86-2.66,1.35C99,9,97.78,10,97.75,12.37,97.74,13.26,97.75,14.14,97.75,15Z" transform="translate(-2.5 -5.22)"/><path d="M87.39,23.23c0,2.07-.08,4.14,0,6.21.08,1.41-.48,1.88-1.79,1.71a6,6,0,0,0-.85,0,1.64,1.64,0,0,1-1.85-1.82c0-4.33,0-8.65,0-13,0-.76.31-1.12,1.09-1.12,4.09,0,3.33-.3,3.38,3.07C87.41,19.93,87.39,21.58,87.39,23.23Z" transform="translate(-2.5 -5.22)"/><path d="M87.48,7.84a2.38,2.38,0,0,1-2.27,2.4,2.34,2.34,0,0,1-2.44-2.36A2.35,2.35,0,0,1,85,5.47,2.39,2.39,0,0,1,87.48,7.84Z" transform="translate(-2.5 -5.22)"/></svg>